<?xml version="1.0" encoding="UTF-8" standalone="no"?>
<!-- Created with Inkscape (http://www.inkscape.org/) -->

<svg
   width="143.22806mm"
   height="33.036472mm"
   viewBox="0 0 143.22805 33.036472"
   version="1.1"
   id="svg24"
   inkscape:version="1.1.2 (b8e25be833, 2022-02-05)"
   sodipodi:docname="AePS.svg"
   xmlns:inkscape="http://www.inkscape.org/namespaces/inkscape"
   xmlns:sodipodi="http://sodipodi.sourceforge.net/DTD/sodipodi-0.dtd"
   xmlns="http://www.w3.org/2000/svg"
   xmlns:svg="http://www.w3.org/2000/svg">
  <sodipodi:namedview
     id="namedview26"
     pagecolor="#ffffff"
     bordercolor="#000000"
     borderopacity="0.25"
     inkscape:pageshadow="2"
     inkscape:pageopacity="0.0"
     inkscape:pagecheckerboard="true"
     inkscape:document-units="mm"
     showgrid="false"
     lock-margins="true"
     fit-margin-top="0"
     fit-margin-left="0"
     fit-margin-right="0"
     fit-margin-bottom="0"
     inkscape:zoom="0.46235269"
     inkscape:cx="5.4071276"
     inkscape:cy="181.67949"
     inkscape:window-width="1366"
     inkscape:window-height="705"
     inkscape:window-x="-8"
     inkscape:window-y="-8"
     inkscape:window-maximized="1"
     inkscape:current-layer="layer1" />
  <defs
     id="defs21">
    <clipPath
       clipPathUnits="userSpaceOnUse"
       id="clipPath44">
      <path
         d="M 0,216 H 432 V 0 H 0 Z"
         id="path42" />
    </clipPath>
  </defs>
  <g
     inkscape:label="Layer 1"
     inkscape:groupmode="layer"
     id="layer1"
     transform="translate(-253.42644,-55.013677)">
    <g
       id="g34"
       inkscape:label="AePS"
       transform="matrix(0.35277777,0,0,-0.35277777,248.84047,109.63179)">
      <g
         id="g38">
        <g
           id="g40"
           clip-path="url(#clipPath44)">
          <g
             id="g46"
             transform="translate(155.8398,116.9512)">
            <path
               d="m 0,0 h -11.126 l 0.846,2.958 c 1.01,2.235 2.947,3.349 5.834,3.349 h 1.766 l 0.644,-0.096 c 1.507,0 2.378,-1.058 2.6,-3.149 z m 5.651,7.229 c -1.373,3.221 -3.929,4.828 -7.687,4.828 h -2.41 c -2.934,0 -5.651,-1.058 -8.152,-3.149 -1.534,-1.536 -2.716,-3.333 -3.515,-5.392 -1.857,-7.636 -2.792,-12.241 -2.792,-13.791 0,-1.177 0.215,-2.33 0.653,-3.444 1.363,-3.093 4.377,-4.629 9.07,-4.629 h 2.147 2.422 0.012 2.859 c 0.831,0 1.603,0.271 2.334,0.844 0.728,0.556 1.209,1.257 1.432,2.075 l 0.787,2.831 h -5.822 -0.007 -4.017 v -0.007 h -1.753 l -2.144,0.199 c -1.419,0.476 -2.131,1.375 -2.131,2.688 v 0.27 l 0.724,3.706 H 0.564 c 1.734,0 3.154,0.771 4.275,2.33 0.983,2.8 1.472,5.138 1.472,7.023 0,1.4 -0.219,2.6 -0.66,3.618"
               style="fill:#66686c;fill-opacity:1;fill-rule:nonzero;stroke:none"
               id="path48" />
          </g>
          <g
             id="g50"
             transform="translate(70.4917,112.458)">
            <path
               d="M 0,0 20.615,18.379 26.079,0.008 Z m 27.363,42.365 -77.828,-69.692 h 20.033 l 15.342,13.735 h 45.22 l 4.092,-13.735 h 13.902 0.004 z"
               style="fill:#66686c;fill-opacity:1;fill-rule:nonzero;stroke:none"
               id="path52" />
          </g>
          <g
             id="g54"
             transform="translate(278.1328,152.7236)">
            <path
               d="M 0,0 C -0.966,1.336 -2.449,1.997 -4.449,1.997 H -80.54 l -3.774,-13.608 69.219,0.008 -4.028,-14.554 -69.179,-0.032 -11.524,-41.412 h 13.859 l 7.701,27.829 h 62.245 c 1.948,0 3.778,0.676 5.507,1.996 1.71,1.328 2.839,2.974 3.38,4.923 L 0.577,-5.019 C 1.133,-2.99 0.938,-1.32 0,0"
               style="fill:#66686c;fill-opacity:1;fill-rule:nonzero;stroke:none"
               id="path56" />
          </g>
          <g
             id="g58"
             transform="translate(299.0693,154.7202)">
            <path
               d="m 0,0 c -0.107,0 -0.207,-0.008 -0.314,-0.016 -1.83,-0.072 -3.543,-0.732 -5.133,-2.02 -1.71,-1.368 -2.817,-3.023 -3.366,-4.979 0,0 -7.817,-28.249 -7.821,-28.265 -0.397,-1.789 -0.176,-3.308 0.704,-4.525 0.573,-0.787 1.32,-1.336 2.267,-1.646 0.549,-0.183 1.161,-0.295 1.824,-0.326 0.124,0 62.73,-0.008 62.73,-0.008 L 46.954,-55.99 h -69.33 -0.013 l -3.772,-13.599 69.349,-0.008 h 6.876 c 0.135,0 0.279,0.016 0.429,0.016 1.782,0.104 3.468,0.748 5.055,1.972 1.725,1.328 2.854,2.967 3.388,4.923 0,0 7.726,27.899 7.753,28.027 0.407,1.765 0.171,3.268 -0.71,4.493 -0.956,1.336 -2.403,1.989 -4.343,1.989 H -0.847 L 3.217,-13.6 h 69.302 0.012 l 3.762,13.584 z"
               style="fill:#66686c;fill-opacity:1;fill-rule:nonzero;stroke:none"
               id="path60" />
          </g>
          <g
             id="g62"
             transform="translate(401.5674,154.8076)">
            <path
               d="M 0,0 17.433,-34.683 -19.219,-69.342 Z"
               style="fill:#298d3e;fill-opacity:1;fill-rule:nonzero;stroke:none"
               id="path64" />
          </g>
          <g
             id="g66"
             transform="translate(389.3437,154.8076)">
            <path
               d="M 0,0 17.425,-34.683 -19.242,-69.342 Z"
               style="fill:#f36817;fill-opacity:1;fill-rule:nonzero;stroke:none"
               id="path68" />
          </g>
          <g
             id="g70"
             transform="translate(18.4556,66.3623)">
            <path
               d="M 0,0 H 3.332 L 2.859,2.728 C 2.839,2.902 2.823,3.102 2.811,3.332 2.795,3.547 2.788,3.802 2.788,4.08 2.653,3.817 2.513,3.571 2.378,3.356 2.243,3.118 2.104,2.919 1.984,2.728 Z m 4.064,-4.692 -0.501,3.078 h -4.732 l -2.25,-3.078 H -5.456 L 3.79,7.73 6.116,-4.692 Z"
               style="fill:#66686c;fill-opacity:1;fill-rule:nonzero;stroke:none"
               id="path72" />
          </g>
          <g
             id="g74"
             transform="translate(32.564,66.3623)">
            <path
               d="M 0,0 H 3.34 L 2.871,2.728 C 2.847,2.902 2.827,3.102 2.816,3.332 2.803,3.547 2.796,3.802 2.796,4.08 2.661,3.817 2.525,3.571 2.386,3.356 2.251,3.118 2.12,2.919 1.989,2.728 Z M 4.072,-4.692 3.571,-1.614 H -1.161 L -3.396,-4.692 H -5.447 L 3.802,7.73 6.128,-4.692 Z"
               style="fill:#66686c;fill-opacity:1;fill-rule:nonzero;stroke:none"
               id="path76" />
          </g>
          <g
             id="g78"
             transform="translate(45.293,63.4199)">
            <path
               d="M 0,0 H 1.63 C 2.529,0 3.225,0.056 3.702,0.183 4.184,0.302 4.632,0.509 5.046,0.787 5.606,1.169 6.08,1.654 6.461,2.227 6.848,2.8 7.146,3.476 7.356,4.23 7.567,4.986 7.634,5.662 7.575,6.234 7.507,6.815 7.305,7.293 6.958,7.674 6.7,7.961 6.35,8.168 5.917,8.287 5.476,8.397 4.756,8.462 3.753,8.462 h -0.707 -0.7 z m -2.433,-1.75 3.32,11.953 h 2.628 c 1.694,0 2.875,-0.087 3.519,-0.262 C 7.682,9.774 8.208,9.479 8.625,9.082 9.17,8.558 9.496,7.873 9.623,7.046 9.75,6.219 9.67,5.28 9.38,4.215 9.082,3.156 8.649,2.21 8.056,1.392 7.472,0.58 6.756,-0.104 5.921,-0.637 5.289,-1.034 4.609,-1.32 3.9,-1.495 3.185,-1.671 2.119,-1.75 0.704,-1.75 H 0.191 Z"
               style="fill:#66686c;fill-opacity:1;fill-rule:nonzero;stroke:none"
               id="path80" />
          </g>
          <g
             id="g82"
             transform="translate(58.2842,61.6699)">
            <path
               d="M 0,0 3.32,11.953 H 5.261 L 4.037,7.54 h 5.88 l 1.225,4.413 h 1.953 L 9.766,0 H 7.818 L 9.432,5.806 H 3.551 L 1.948,0 Z"
               style="fill:#66686c;fill-opacity:1;fill-rule:nonzero;stroke:none"
               id="path84" />
          </g>
          <g
             id="g86"
             transform="translate(77.9956,66.3623)">
            <path
               d="M 0,0 H 3.34 L 2.872,2.728 C 2.847,2.902 2.832,3.102 2.819,3.332 2.816,3.547 2.804,3.802 2.804,4.08 2.661,3.817 2.521,3.571 2.386,3.356 2.255,3.118 2.115,2.919 1.992,2.728 Z m 4.08,-4.692 -0.505,3.078 h -4.744 l -2.235,-3.078 h -2.04 L 3.798,7.73 6.128,-4.692 Z"
               style="fill:#66686c;fill-opacity:1;fill-rule:nonzero;stroke:none"
               id="path88" />
          </g>
          <g
             id="g90"
             transform="translate(92.1201,66.3623)">
            <path
               d="M 0,0 H 3.324 L 2.867,2.728 C 2.843,2.902 2.82,3.102 2.812,3.332 2.796,3.547 2.788,3.802 2.788,4.08 2.652,3.817 2.518,3.571 2.37,3.356 2.247,3.118 2.112,2.919 1.984,2.728 Z M 4.068,-4.692 3.567,-1.614 H -1.169 L -3.408,-4.692 H -5.452 L 3.793,7.73 6.116,-4.692 Z"
               style="fill:#66686c;fill-opacity:1;fill-rule:nonzero;stroke:none"
               id="path92" />
          </g>
          <g
             id="g94"
             transform="translate(106.2607,68.5254)">
            <path
               d="M 0,0 H 0.354 C 1.38,0 2.095,0.119 2.497,0.366 2.911,0.597 3.193,1.026 3.355,1.631 3.543,2.29 3.491,2.752 3.201,3.021 2.915,3.292 2.282,3.436 1.3,3.436 H 0.951 Z m -0.544,-1.512 -1.48,-5.343 h -1.829 l 3.324,11.953 h 2.717 c 0.791,0 1.395,-0.048 1.8,-0.159 C 4.398,4.836 4.724,4.669 4.967,4.431 5.256,4.128 5.444,3.77 5.516,3.301 5.599,2.848 5.547,2.354 5.4,1.813 5.129,0.843 4.688,0.096 4.076,-0.445 3.463,-0.986 2.7,-1.312 1.762,-1.424 l 2.605,-5.431 h -2.2 l -2.489,5.343 z"
               style="fill:#66686c;fill-opacity:1;fill-rule:nonzero;stroke:none"
               id="path96" />
          </g>
          <g
             id="g98"
             transform="translate(122.9146,61.6699)">
            <path
               d="M 0,0 3.32,11.953 H 9.989 L 9.535,10.299 H 4.807 L 3.972,7.309 H 8.7 L 8.223,5.599 H 3.495 L 2.425,1.733 H 7.154 L 6.664,0 Z"
               style="fill:#66686c;fill-opacity:1;fill-rule:nonzero;stroke:none"
               id="path100" />
          </g>
          <g
             id="g102"
             transform="translate(135.3887,61.6699)">
            <path
               d="M 0,0 3.452,12.423 9.011,5.114 C 9.162,4.906 9.317,4.685 9.452,4.453 9.607,4.223 9.754,3.96 9.909,3.659 l 2.307,8.294 h 1.793 L 10.565,-0.469 4.878,6.967 C 4.724,7.165 4.581,7.389 4.454,7.603 4.326,7.833 4.199,8.064 4.096,8.303 L 1.79,0 Z"
               style="fill:#66686c;fill-opacity:1;fill-rule:nonzero;stroke:none"
               id="path104" />
          </g>
          <g
             id="g106"
             transform="translate(155.689,66.3623)">
            <path
               d="M 0,0 H 3.34 L 2.863,2.728 C 2.842,2.902 2.831,3.102 2.819,3.332 2.799,3.547 2.799,3.802 2.799,4.08 2.656,3.817 2.521,3.571 2.386,3.356 2.25,3.118 2.115,2.919 1.988,2.728 Z M 4.072,-4.692 3.57,-1.614 H -1.166 L -3.409,-4.692 H -5.445 L 3.797,7.73 6.12,-4.692 Z"
               style="fill:#66686c;fill-opacity:1;fill-rule:nonzero;stroke:none"
               id="path108" />
          </g>
          <g
             id="g110"
             transform="translate(169.8091,68.5732)">
            <path
               d="M 0,0 H 0.744 C 1.67,0 2.354,0.127 2.808,0.382 3.265,0.628 3.579,1.058 3.742,1.662 3.929,2.314 3.873,2.775 3.591,3.038 3.312,3.3 2.68,3.428 1.69,3.428 H 0.946 Z m -1.467,-5.28 h 0.659 c 0.685,0 1.202,0.022 1.555,0.079 0.355,0.055 0.645,0.151 0.879,0.286 0.283,0.159 0.529,0.365 0.736,0.636 0.206,0.271 0.346,0.557 0.434,0.883 0.107,0.381 0.127,0.715 0.043,1.002 -0.08,0.279 -0.251,0.494 -0.493,0.661 -0.163,0.087 -0.349,0.158 -0.569,0.199 -0.234,0.047 -0.54,0.062 -0.934,0.062 H 0.262 -0.414 Z M -3.822,-6.903 -0.501,5.05 h 3.01 C 3.368,5.05 3.993,5.002 4.382,4.915 4.76,4.819 5.066,4.668 5.3,4.445 5.591,4.175 5.782,3.825 5.866,3.388 5.949,2.943 5.909,2.449 5.762,1.925 5.587,1.28 5.289,0.756 4.875,0.326 4.466,-0.104 3.957,-0.397 3.349,-0.572 4.016,-0.676 4.469,-1.002 4.728,-1.527 4.979,-2.044 4.998,-2.712 4.776,-3.523 4.645,-3.992 4.425,-4.454 4.14,-4.892 3.849,-5.329 3.511,-5.694 3.118,-6.005 2.692,-6.339 2.227,-6.561 1.698,-6.704 1.177,-6.831 0.346,-6.903 -0.799,-6.903 Z"
               style="fill:#66686c;fill-opacity:1;fill-rule:nonzero;stroke:none"
               id="path112" />
          </g>
          <g
             id="g114"
             transform="translate(178.6606,61.6699)">
            <path
               d="M 0,0 3.325,11.953 H 5.269 L 2.43,1.733 H 6.769 L 6.287,0 Z"
               style="fill:#66686c;fill-opacity:1;fill-rule:nonzero;stroke:none"
               id="path116" />
          </g>
          <g
             id="g118"
             transform="translate(190.0972,61.6699)">
            <path
               d="m 0,0 3.328,11.953 h 6.677 L 9.535,10.299 H 4.811 L 3.977,7.309 H 8.704 L 8.227,5.599 H 3.508 L 2.434,1.733 H 7.158 L 6.676,0 Z"
               style="fill:#66686c;fill-opacity:1;fill-rule:nonzero;stroke:none"
               id="path120" />
          </g>
          <g
             id="g122"
             transform="translate(205.2754,63.4199)">
            <path
               d="M 0,0 H 1.63 C 2.529,0 3.217,0.056 3.706,0.183 4.183,0.302 4.633,0.509 5.05,0.787 5.599,1.169 6.081,1.654 6.458,2.227 6.844,2.8 7.142,3.476 7.353,4.23 7.563,4.986 7.635,5.662 7.571,6.234 7.507,6.815 7.292,7.293 6.959,7.674 6.696,7.961 6.354,8.168 5.913,8.287 5.471,8.397 4.752,8.462 3.754,8.462 H 3.05 2.346 Z M -2.43,-1.75 0.887,10.203 H 3.511 C 5.209,10.203 6.39,10.116 7.03,9.941 7.683,9.774 8.216,9.479 8.622,9.082 9.166,8.558 9.508,7.873 9.631,7.046 9.754,6.219 9.671,5.28 9.373,4.215 9.086,3.156 8.642,2.21 8.061,1.392 7.472,0.58 6.76,-0.104 5.921,-0.637 5.293,-1.034 4.613,-1.32 3.896,-1.495 3.185,-1.671 2.12,-1.75 0.711,-1.75 H 0.187 Z"
               style="fill:#66686c;fill-opacity:1;fill-rule:nonzero;stroke:none"
               id="path124" />
          </g>
          <g
             id="g126"
             transform="translate(230.2354,68.6211)">
            <path
               d="M 0,0 H 0.493 C 1.579,0 2.323,0.119 2.752,0.357 3.174,0.58 3.468,1.002 3.636,1.591 3.811,2.227 3.746,2.68 3.437,2.942 3.118,3.196 2.45,3.34 1.424,3.34 H 0.923 Z m -0.567,-1.591 -1.496,-5.36 h -1.809 l 3.32,11.953 H 2.383 C 3.253,5.002 3.878,4.954 4.26,4.859 4.653,4.756 4.963,4.604 5.206,4.391 5.512,4.104 5.699,3.729 5.782,3.269 5.854,2.791 5.826,2.274 5.663,1.718 5.512,1.137 5.258,0.62 4.908,0.143 4.573,-0.335 4.168,-0.716 3.715,-0.986 3.349,-1.201 2.951,-1.36 2.518,-1.455 2.08,-1.543 1.424,-1.591 0.55,-1.591 H 0.172 Z"
               style="fill:#66686c;fill-opacity:1;fill-rule:nonzero;stroke:none"
               id="path128" />
          </g>
          <g
             id="g130"
             transform="translate(240.873,66.3623)">
            <path
               d="M 0,0 H 3.332 L 2.867,2.728 C 2.847,2.902 2.827,3.102 2.815,3.332 2.804,3.547 2.795,3.802 2.795,4.08 2.66,3.817 2.524,3.571 2.39,3.356 2.243,3.118 2.119,2.919 1.992,2.728 Z M 4.072,-4.692 3.575,-1.614 H -1.169 L -3.404,-4.692 H -5.447 L 3.798,7.73 6.124,-4.692 Z"
               style="fill:#66686c;fill-opacity:1;fill-rule:nonzero;stroke:none"
               id="path132" />
          </g>
          <g
             id="g134"
             transform="translate(251.4863,61.6699)">
            <path
               d="m 0,0 1.52,5.464 -2.227,6.489 H 1.341 L 2.725,7.889 C 2.752,7.786 2.783,7.659 2.823,7.491 2.875,7.317 2.91,7.135 2.951,6.942 3.078,7.135 3.213,7.309 3.336,7.476 3.476,7.635 3.603,7.794 3.742,7.945 L 7.42,11.953 H 9.361 L 3.451,5.464 1.925,0 Z"
               style="fill:#66686c;fill-opacity:1;fill-rule:nonzero;stroke:none"
               id="path136" />
          </g>
          <g
             id="g138"
             transform="translate(272.4668,67.5713)">
            <path
               d="M 0,0 C 0,0.087 0.035,0.342 0.1,0.771 0.162,1.121 0.202,1.407 0.242,1.63 0.115,1.36 -0.032,1.09 -0.203,0.819 -0.37,0.541 -0.558,0.262 -0.775,-0.017 L -5.667,-6.395 -6.991,0.111 C -7.047,0.374 -7.09,0.636 -7.11,0.891 -7.143,1.146 -7.154,1.384 -7.162,1.63 -7.238,1.376 -7.325,1.129 -7.433,0.835 -7.548,0.564 -7.684,0.278 -7.838,-0.017 l -2.919,-5.884 h -1.79 l 6.291,12.454 1.436,-7.548 c 0.011,-0.111 0.049,-0.31 0.08,-0.588 0.04,-0.287 0.079,-0.62 0.114,-1.034 0.216,0.342 0.51,0.78 0.907,1.312 0.108,0.136 0.188,0.239 0.235,0.319 L 2.06,6.553 1.486,-5.901 h -1.805 z"
               style="fill:#66686c;fill-opacity:1;fill-rule:nonzero;stroke:none"
               id="path140" />
          </g>
          <g
             id="g142"
             transform="translate(279.5566,61.6699)">
            <path
               d="M 0,0 3.324,11.953 H 9.988 L 9.532,10.299 H 4.807 L 3.972,7.309 h 4.72 L 8.231,5.599 H 3.503 L 2.421,1.733 H 7.153 L 6.668,0 Z"
               style="fill:#66686c;fill-opacity:1;fill-rule:nonzero;stroke:none"
               id="path144" />
          </g>
          <g
             id="g146"
             transform="translate(291.8281,61.6699)">
            <path
               d="M 0,0 3.46,12.423 9.022,5.114 C 9.169,4.906 9.321,4.685 9.468,4.453 9.619,4.223 9.762,3.96 9.921,3.659 l 2.303,8.294 h 1.793 L 10.569,-0.469 4.879,6.967 C 4.735,7.165 4.593,7.389 4.465,7.603 4.33,7.833 4.211,8.064 4.107,8.303 L 1.801,0 Z"
               style="fill:#66686c;fill-opacity:1;fill-rule:nonzero;stroke:none"
               id="path148" />
          </g>
          <g
             id="g150"
             transform="translate(315.373,71.9688)">
            <path
               d="M 0,0 -2.863,-10.299 H -4.808 L -1.945,0 h -3.177 l 0.458,1.654 H 3.614 L 3.165,0 Z"
               style="fill:#66686c;fill-opacity:1;fill-rule:nonzero;stroke:none"
               id="path152" />
          </g>
          <g
             id="g154"
             transform="translate(328.2725,64.0566)">
            <path
               d="m 0,0 1.742,0.724 c 0,-0.541 0.154,-0.947 0.478,-1.226 0.313,-0.278 0.77,-0.413 1.383,-0.413 0.581,0 1.082,0.151 1.511,0.477 C 5.543,-0.12 5.834,0.31 5.98,0.851 6.18,1.55 5.77,2.171 4.76,2.728 4.617,2.807 4.51,2.87 4.426,2.91 3.284,3.554 2.58,4.127 2.287,4.651 1.984,5.176 1.944,5.812 2.155,6.561 2.426,7.539 2.975,8.326 3.805,8.923 4.633,9.535 5.591,9.829 6.653,9.829 7.544,9.829 8.228,9.662 8.729,9.32 9.226,8.986 9.5,8.493 9.552,7.856 L 7.817,7.077 C 7.679,7.451 7.491,7.729 7.253,7.904 7.019,8.08 6.712,8.159 6.347,8.159 5.822,8.159 5.368,8.016 4.999,7.745 4.605,7.475 4.346,7.108 4.219,6.656 4.021,5.939 4.51,5.272 5.687,4.651 5.781,4.604 5.85,4.564 5.909,4.532 6.936,3.984 7.596,3.451 7.897,2.941 8.192,2.417 8.228,1.772 8.005,0.985 7.699,-0.144 7.086,-1.042 6.191,-1.711 5.293,-2.379 4.239,-2.713 3.026,-2.713 c -1.022,0 -1.79,0.232 -2.31,0.708 C 0.195,-1.535 -0.039,-0.868 0,0"
               style="fill:#66686c;fill-opacity:1;fill-rule:nonzero;stroke:none"
               id="path156" />
          </g>
          <g
             id="g158"
             transform="translate(343.0811,61.6699)">
            <path
               d="m 0,0 1.527,5.464 -2.226,6.489 H 1.34 L 2.728,7.889 C 2.751,7.786 2.787,7.659 2.835,7.491 2.871,7.317 2.922,7.135 2.959,6.942 3.077,7.135 3.213,7.309 3.348,7.476 3.476,7.635 3.606,7.794 3.734,7.945 L 7.42,11.953 H 9.365 L 3.455,5.464 1.933,0 Z"
               style="fill:#66686c;fill-opacity:1;fill-rule:nonzero;stroke:none"
               id="path160" />
          </g>
          <g
             id="g162"
             transform="translate(353.4561,64.0566)">
            <path
               d="m 0,0 1.745,0.724 c 0,-0.541 0.155,-0.947 0.473,-1.226 0.314,-0.278 0.776,-0.413 1.388,-0.413 0.573,0 1.07,0.151 1.503,0.477 C 5.547,-0.12 5.83,0.31 5.98,0.851 6.171,1.55 5.773,2.171 4.756,2.728 4.616,2.807 4.505,2.87 4.422,2.91 3.296,3.554 2.576,4.127 2.278,4.651 1.979,5.176 1.944,5.812 2.15,6.561 2.421,7.539 2.979,8.326 3.801,8.923 4.628,9.535 5.587,9.829 6.652,9.829 7.535,9.829 8.231,9.662 8.725,9.32 9.225,8.986 9.5,8.493 9.556,7.856 L 7.817,7.077 C 7.682,7.451 7.495,7.729 7.253,7.904 7.015,8.08 6.712,8.159 6.342,8.159 5.825,8.159 5.372,8.016 4.982,7.745 4.604,7.475 4.342,7.108 4.215,6.656 4.016,5.939 4.513,5.272 5.687,4.651 5.781,4.604 5.845,4.564 5.897,4.532 6.927,3.984 7.595,3.451 7.893,2.941 8.19,2.417 8.231,1.772 8.008,0.985 7.69,-0.144 7.094,-1.042 6.187,-1.711 5.288,-2.379 4.234,-2.713 3.018,-2.713 c -1.01,0 -1.786,0.232 -2.307,0.708 C 0.195,-1.535 -0.04,-0.868 0,0"
               style="fill:#66686c;fill-opacity:1;fill-rule:nonzero;stroke:none"
               id="path164" />
          </g>
          <g
             id="g166"
             transform="translate(372.4199,71.9688)">
            <path
               d="M 0,0 -2.855,-10.299 H -4.804 L -1.94,0 H -5.118 L -4.66,1.654 H 3.618 L 3.153,0 Z"
               style="fill:#66686c;fill-opacity:1;fill-rule:nonzero;stroke:none"
               id="path168" />
          </g>
          <g
             id="g170"
             transform="translate(377.2549,61.6699)">
            <path
               d="M 0,0 3.316,11.953 H 9.985 L 9.524,10.299 H 4.796 L 3.973,7.309 h 4.72 L 8.224,5.599 H 3.496 L 2.418,1.733 H 7.146 L 6.657,0 Z"
               style="fill:#66686c;fill-opacity:1;fill-rule:nonzero;stroke:none"
               id="path172" />
          </g>
          <g
             id="g174"
             transform="translate(400.9873,67.5713)">
            <path
               d="M 0,0 C 0,0.087 0.039,0.342 0.103,0.771 0.158,1.121 0.187,1.407 0.229,1.63 0.103,1.36 -0.041,1.09 -0.207,0.819 -0.374,0.541 -0.562,0.262 -0.779,-0.017 L -5.676,-6.395 -6.991,0.111 C -7.047,0.374 -7.09,0.636 -7.114,0.891 -7.139,1.146 -7.158,1.384 -7.158,1.63 -7.238,1.376 -7.333,1.129 -7.444,0.835 -7.548,0.564 -7.687,0.278 -7.838,-0.017 l -2.923,-5.884 h -1.786 l 6.283,12.454 1.424,-7.548 c 0.036,-0.111 0.06,-0.31 0.1,-0.588 0.027,-0.287 0.071,-0.62 0.115,-1.034 0.199,0.342 0.513,0.78 0.902,1.312 0.104,0.136 0.179,0.239 0.235,0.319 L 2.056,6.553 1.486,-5.901 h -1.805 z"
               style="fill:#66686c;fill-opacity:1;fill-rule:nonzero;stroke:none"
               id="path176" />
          </g>
          <g
             id="g178"
             transform="translate(134.1201,92.0664)">
            <path
               d="M 0,0 C -0.008,0.024 0.067,0.159 0.143,0.271 -2.685,2.489 -4.248,5.106 -5.07,6.975 l -0.112,0.278 c -0.938,2.393 -1.415,4.844 -1.415,7.293 0,1.153 0.072,2.641 0.99,7.031 0.028,0.087 0.04,0.167 0.067,0.285 l 0.008,0.073 v 0.079 c 0,0.835 -0.672,1.511 -1.503,1.511 -0.668,0 -1.237,-0.421 -1.443,-1.058 l -0.051,-0.135 c -0.995,-4.764 -1.075,-6.458 -1.075,-7.786 0,-2.823 0.541,-5.647 1.615,-8.391 l 0.163,-0.389 c 0.946,-2.155 2.772,-5.242 6.1,-7.858 l 1.869,1.257 0.155,0.254 C 0.163,-0.318 0.02,-0.017 0,0"
               style="fill:#66686c;fill-opacity:1;fill-rule:nonzero;stroke:none"
               id="path180" />
          </g>
          <g
             id="g182"
             transform="translate(169.7808,143.8408)">
            <path
               d="m 0,0 c -0.298,0.016 -0.592,0.119 -0.831,0.294 -6.688,4.868 -13.889,7.325 -21.418,7.325 -7.88,0 -13.153,-2.752 -13.213,-2.785 -0.227,-0.118 -0.477,-0.182 -0.74,-0.182 -0.589,0 -1.129,0.326 -1.407,0.851 -0.421,0.771 -0.12,1.742 0.652,2.156 0.25,0.135 6.152,3.22 14.733,3.22 8.144,0 15.977,-2.696 23.266,-8.001 C 1.762,2.362 1.921,1.367 1.396,0.652 1.098,0.23 0.617,-0.008 0.104,-0.008 Z"
               style="fill:#66686c;fill-opacity:1;fill-rule:nonzero;stroke:none"
               id="path184" />
          </g>
          <g
             id="g186"
             transform="translate(174.5532,113.7783)">
            <path
               d="m 0,0 c -0.815,0.056 -1.439,0.819 -1.396,1.702 1.129,17.647 -8.514,24.567 -8.621,24.637 l -0.063,0.057 c -3.842,2.998 -8.379,4.525 -13.489,4.525 -10.764,0 -20.344,-6.721 -20.439,-6.784 -0.247,-0.175 -0.537,-0.27 -0.831,-0.27 -0.497,0 -0.967,0.262 -1.241,0.707 -0.461,0.732 -0.27,1.726 0.414,2.219 0.417,0.294 10.514,7.397 22.034,7.397 5.721,0 10.867,-1.75 15.285,-5.202 C -7.039,28.058 2.799,20.423 1.595,1.487 1.546,0.644 0.891,-0.008 0.1,-0.008 Z"
               style="fill:#66686c;fill-opacity:1;fill-rule:nonzero;stroke:none"
               id="path188" />
          </g>
          <g
             id="g190"
             transform="translate(168.0234,110.1592)">
            <path
               d="m 0,0 c -0.831,0 -1.507,0.716 -1.507,1.599 0,0.231 0.056,0.477 0.167,0.708 0.282,0.715 0.398,1.177 0.405,1.2 2.895,14.109 -4.171,20.328 -4.469,20.583 -3.889,3.141 -8.283,4.731 -13.067,4.731 h -0.127 l -0.123,0.017 c -0.736,-0.032 -2.112,-0.08 -2.987,-0.207 -0.095,-0.016 -2.214,-0.35 -3.964,-1.026 -2.625,-1.034 -4.891,-2.41 -6.911,-4.199 l -0.665,-0.644 c -1.169,-1.233 -2.214,-2.593 -3.117,-4.056 l -0.032,0.016 -0.199,-0.367 c -0.25,-0.508 -0.736,-0.826 -1.273,-0.826 -0.791,0 -1.431,0.668 -1.431,1.511 0,0.318 0.108,0.652 0.311,0.922 1.086,1.822 2.33,3.468 3.705,4.915 l 0.116,0.112 0.704,0.684 c 2.322,2.051 4.855,3.594 7.797,4.747 2.021,0.804 4.335,1.297 4.53,1.329 0.259,0.04 0.517,0.063 0.772,0.079 0.982,0.104 1.948,0.159 2.894,0.159 5.495,0 10.518,-1.805 14.928,-5.392 0.366,-0.286 8.892,-7.603 5.56,-23.78 C 1.897,2.267 1.698,1.646 1.428,1.019 L 1.321,0.835 C 1.05,0.326 0.553,0 0,0"
               style="fill:#66686c;fill-opacity:1;fill-rule:nonzero;stroke:none"
               id="path192" />
          </g>
          <g
             id="g194"
             transform="translate(164.8467,120.8799)">
            <path
               d="m 0,0 c -0.844,0 -1.527,0.716 -1.527,1.583 0,0.047 0.004,0.071 0.004,0.103 l 0.016,0.127 c -0.132,1.63 -1.527,4.708 -3.722,7.071 -1.941,2.091 -5.05,3.014 -9.011,3.014 -0.25,0 -0.513,-0.008 -0.776,-0.016 -0.405,-0.008 -0.815,-0.04 -1.216,-0.088 l -0.319,-0.031 -0.007,-0.016 c -2.729,-0.326 -5.29,-1.527 -7.611,-3.556 l -0.107,-0.095 -0.12,-0.111 c -1.563,-1.631 -2.788,-3.531 -3.646,-5.671 l -0.02,0.016 -0.151,-0.373 c -0.207,-0.66 -0.788,-1.098 -1.444,-1.098 -0.851,0 -1.543,0.724 -1.543,1.606 0,0.12 0.02,0.247 0.059,0.39 l 0.016,0.08 0.013,0.055 c 0.028,0.064 0.044,0.104 0.068,0.159 1.021,2.697 2.524,5.075 4.461,7.095 l 0.226,0.214 0.195,0.183 c 2.398,2.092 5.046,3.443 7.878,4.032 l 0.7,0.152 v 0.008 c 0.839,0.135 1.65,0.214 2.461,0.238 0.302,0.024 0.601,0.024 0.883,0.024 4.823,0 8.68,-1.256 11.222,-3.985 2.827,-3.046 4.556,-6.823 4.58,-9.042 H 1.555 L 1.535,1.646 C 1.538,0.716 0.851,0 0,0"
               style="fill:#66686c;fill-opacity:1;fill-rule:nonzero;stroke:none"
               id="path196" />
          </g>
          <g
             id="g198"
             transform="translate(163.1128,98.0391)">
            <path
               d="m 0,0 c -0.059,-0.008 -0.111,-0.024 -0.179,-0.024 -0.489,-0.048 -0.959,0.12 -1.3,0.477 -0.294,0.311 -0.454,0.708 -0.45,1.138 0,0.421 0.223,0.77 0.481,1.121 2.871,3.698 3.946,6.911 4.064,7.595 0.152,0.787 0.577,1.503 1.337,1.671 C 4.044,11.993 4.131,12 4.227,12 5.102,12.033 5.853,11.349 5.885,10.458 5.889,10.26 5.257,4.366 0.779,0.422 0.557,0.223 0.294,0.063 0,0"
               style="fill:#66686c;fill-opacity:1;fill-rule:nonzero;stroke:none"
               id="path200" />
          </g>
          <g
             id="g202"
             transform="translate(129.5469,127.3218)">
            <path
               d="m 0,0 c -0.768,0.422 -1.746,0.144 -2.167,-0.636 -1.269,-2.29 -1.424,-3.142 -1.753,-5.432 -0.049,-0.374 -0.077,-0.707 -0.077,-1.01 -0.031,-0.143 -0.047,-0.295 -0.023,-0.437 0.096,-0.883 0.891,-1.519 1.777,-1.424 0.824,0.096 1.428,0.803 1.411,1.623 h 0.025 c 0,0.238 0.008,0.532 0.048,0.906 0.179,1.814 0.314,2.298 1.395,4.231 0.072,0.167 0.143,0.334 0.176,0.517 l 0.007,0.103 C 0.887,-0.922 0.557,-0.311 0,0"
               style="fill:#66686c;fill-opacity:1;fill-rule:nonzero;stroke:none"
               id="path204" />
          </g>
          <g
             id="g206"
             transform="translate(149.9902,93.3066)">
            <path
               d="m 0,0 c -0.016,-0.883 0.696,-1.606 1.579,-1.613 2.625,-0.033 3.436,0.238 5.614,1.017 0.358,0.143 0.661,0.271 0.927,0.406 C 8.255,-0.143 8.398,-0.087 8.529,0 9.253,0.518 9.428,1.504 8.931,2.243 8.458,2.927 7.551,3.118 6.836,2.729 L 6.828,2.744 C 6.613,2.633 6.346,2.498 5.997,2.362 4.307,1.654 3.833,1.552 1.614,1.575 1.428,1.583 1.252,1.552 1.082,1.496 L 0.978,1.455 C 0.389,1.209 0.004,0.645 0,0"
               style="fill:#66686c;fill-opacity:1;fill-rule:nonzero;stroke:none"
               id="path208" />
          </g>
          <g
             id="g210"
             transform="translate(146.0215,94.2852)">
            <path
               d="m 0,0 c -0.039,0 -0.08,-0.023 -0.08,-0.023 -6.866,0.714 -9.893,4.278 -11.225,7.316 l -0.056,0.127 c -0.656,1.694 -0.998,3.468 -0.998,5.266 0,1.255 0.282,3.832 2.251,12.302 0.024,0.119 0.044,0.255 0.044,0.382 0,0.907 -0.736,1.638 -1.639,1.638 -0.775,0 -1.415,-0.525 -1.602,-1.257 l -0.004,0.017 c -2.021,-8.732 -2.338,-11.5 -2.338,-13.082 0,-2.22 0.414,-4.391 1.221,-6.475 l 0.115,-0.238 c 3.022,-6.904 9.491,-8.852 14.264,-9.297 v 0.04 l 0.035,-0.009 c 0.923,0 1.662,0.74 1.662,1.639 C 1.65,-0.748 0.911,0 0,0"
               style="fill:#66686c;fill-opacity:1;fill-rule:nonzero;stroke:none"
               id="path212" />
          </g>
          <g
             id="g214"
             transform="translate(134.8433,91.4541)">
            <path
               d="m 0,0 c -0.183,0.819 -0.994,1.336 -1.813,1.161 -0.823,-0.175 -1.34,-0.987 -1.161,-1.806 0.183,-0.819 0.99,-1.343 1.813,-1.161 C -0.338,-1.631 0.179,-0.819 0,0"
               style="fill:#66686c;fill-opacity:1;fill-rule:nonzero;stroke:none"
               id="path216" />
          </g>
          <g
             id="g218"
             transform="translate(148.0098,145.6372)">
            <path
               d="m 0,0 1.225,-0.803 c 0,0 1.622,-0.055 1.837,-0.405 C 3.289,-1.566 3.531,-2.577 3.384,-2.886 3.261,-3.157 2.958,-3.587 2.124,-3.666 1.296,-3.746 2.104,-4.731 2.542,-4.787 2.994,-4.851 4,-5.01 4.371,-4.986 c 0.373,0.024 1.069,0.111 1.117,0.175 0.055,0.08 0.274,0.263 0.274,0.263 l 0.259,0.429 c 0,0 -1.65,0.787 -1.981,1.344 -0.326,0.557 0.175,1.702 0.637,1.71 0.473,0 1.006,0.365 0.377,0.811 C 4.426,0.183 3.945,0.628 3.607,0.557 3.281,0.485 2.442,0.494 2.322,0.406 2.211,0.318 0,0 0,0"
               style="fill:#66686c;fill-opacity:1;fill-rule:nonzero;stroke:none"
               id="path220" />
          </g>
          <g
             id="g222"
             transform="translate(161.9712,92.8691)">
            <path
               d="m 0,0 c -0.509,0.207 -1.097,0.104 -1.531,-0.278 l -0.326,-0.271 -0.024,0.032 c -1.415,-1.017 -2.923,-1.869 -4.505,-2.56 l -0.879,-0.342 c -2.616,-0.883 -5.3,-1.272 -8.227,-1.217 -1.913,0.032 -4.096,0.548 -4.183,0.573 -0.899,0.214 -2.232,0.7 -2.943,0.961 l -0.135,0.056 -0.12,0.056 c -2.835,1.13 -5.296,2.783 -7.372,4.899 l -0.203,-0.461 v -2.894 l 0.135,-0.844 c 1.865,-1.503 3.964,-2.712 6.271,-3.643 0.907,-0.366 1.857,-0.683 2.839,-0.962 0.251,-0.08 0.509,-0.167 0.771,-0.231 0.204,-0.048 2.617,-0.469 4.852,-0.509 3.261,-0.071 6.279,0.382 9.285,1.384 l 0.927,0.366 0.147,0.048 c 1.857,0.819 3.674,1.869 5.4,3.141 0.294,0.175 0.517,0.43 0.64,0.74 C 1.13,-1.185 0.759,-0.31 0,0"
               style="fill:#66686c;fill-opacity:1;fill-rule:nonzero;stroke:none"
               id="path224" />
          </g>
        </g>
      </g>
    </g>
  </g>
</svg>
