<?xml version="1.0" encoding="UTF-8" standalone="no"?>
<!-- Created with Inkscape (http://www.inkscape.org/) -->

<svg
   width="130mm"
   height="39.858246mm"
   viewBox="0 0 130 39.858246"
   version="1.1"
   id="svg1854"
   inkscape:version="1.1.2 (b8e25be833, 2022-02-05)"
   sodipodi:docname="NCPI logo.svg"
   xmlns:inkscape="http://www.inkscape.org/namespaces/inkscape"
   xmlns:sodipodi="http://sodipodi.sourceforge.net/DTD/sodipodi-0.dtd"
   xmlns="http://www.w3.org/2000/svg"
   xmlns:svg="http://www.w3.org/2000/svg"
   xmlns:rdf="http://www.w3.org/1999/02/22-rdf-syntax-ns#"
   xmlns:cc="http://creativecommons.org/ns#"
   xmlns:dc="http://purl.org/dc/elements/1.1/">
  <title
     id="title2292">National Payments Corporation of India</title>
  <sodipodi:namedview
     id="namedview1856"
     pagecolor="#ffffff"
     bordercolor="#000000"
     borderopacity="0.25"
     inkscape:pageshadow="2"
     inkscape:pageopacity="0.0"
     inkscape:pagecheckerboard="false"
     inkscape:document-units="mm"
     showgrid="false"
     fit-margin-top="0"
     fit-margin-left="0"
     fit-margin-right="0"
     fit-margin-bottom="0"
     inkscape:zoom="2.6154618"
     inkscape:cx="-129.42265"
     inkscape:cy="87.55624"
     inkscape:window-width="1366"
     inkscape:window-height="705"
     inkscape:window-x="-8"
     inkscape:window-y="-8"
     inkscape:window-maximized="1"
     inkscape:current-layer="layer1"
     showborder="true"
     lock-margins="true" />
  <defs
     id="defs1851">
    <clipPath
       clipPathUnits="userSpaceOnUse"
       id="clipPath838">
      <path
         d="M 0.32,0.16 V 793.76001 H 1122.5601 V 0.16 Z"
         clip-rule="evenodd"
         id="path836" />
    </clipPath>
  </defs>
  <g
     inkscape:label="Layer 1"
     inkscape:groupmode="layer"
     id="layer1"
     transform="translate(-77.135821,-95.160455)">
    <g
       id="g832"
       transform="matrix(0.22639012,0,0,0.22639012,14.982675,25.070072)">
      <g
         id="g834"
         clip-path="url(#clipPath838)">
        <g
           id="g840"
           transform="translate(715.95001,408.04999)">
          <path
             d="m 0,0 c -0.8,3.05 -2.56,5.62 -5.29,7.7 -2.72,2.09 -5.45,3.21 -8.49,3.21 h -108.79 c -3.04,0 -5.29,-1.12 -6.73,-3.21 -1.59999,-2.08 -1.92,-4.65 -0.95999,-7.7 L -106.07,-87.379997 c 0.8,-3.050003 2.57,-5.610001 5.13,-7.700005 2.719999,-2.239998 5.609998,-3.209999 8.649999,-3.209999 H 16.34 c 3.209999,0 5.450001,0.970001 7.049999,3.050003 C 24.83,-93.150002 25.15,-90.43 24.190001,-87.379997 l -2.880002,10.419998 H -87.32 L -105.75,-10.58 H 3.04 Z"
             style="fill:#183181;fill-opacity:1;fill-rule:nonzero;stroke:none"
             id="path842" />
        </g>
        <g
           id="g844">
          <path
             d="m 750.08002,418.95999 h -21.79004 l 30.28003,-109.03998 h 21.63 z"
             style="fill:#183181;fill-opacity:1;fill-rule:nonzero;stroke:none"
             id="path846" />
        </g>
        <g
           id="g848"
           transform="translate(452.06,309.60001)">
          <path
             d="M 0,0 H -21.629999 L -41.490002,71.519997 -128.64999,0.16 l -30.28,109.36 H -137.14 L -117.6,38.490002 -30.440001,109.84 Z"
             style="fill:#183181;fill-opacity:1;fill-rule:nonzero;stroke:none"
             id="path850" />
        </g>
        <g
           id="g852"
           transform="translate(593.53998,312.81)">
          <path
             d="m 0,0 c -1.44,-2.08 -3.69,-3.05 -6.89,-3.05 h -119.2 l -5.93,21.330001 h 108.470001 l -6.41,22.769998 H -138.27 L -156.38,106.15 h 21.63 l 12.18,-43.780001 h 97.58 c 3.039999,0 5.92,-0.959999 8.65,-3.039997 2.56,-2.09 4.32,-4.650002 5.28,-7.700001 L 0.96,7.86 C 1.92,4.81 1.6,2.09 0,0 Z"
             style="fill:#183181;fill-opacity:1;fill-rule:nonzero;stroke:none"
             id="path854" />
        </g>
        <g
           id="g856">
          <path
             d="m 821.21002,309.76001 27.56,54.67999 -57.67999,54.68 z"
             style="fill:#008b43;fill-opacity:1;fill-rule:nonzero;stroke:none"
             id="path858" />
        </g>
        <g
           id="g860">
          <path
             d="m 801.98999,309.76001 27.56,54.67999 -57.83997,54.68 z"
             style="fill:#f47921;fill-opacity:1;fill-rule:nonzero;stroke:none"
             id="path862" />
        </g>
        <g
           id="g864"
           transform="translate(768.17999,431.95001)">
          <path
             d="m 0,0 c 1.12,-0.65 2.08,-0.97 3.21,-0.97 0.96,0 2.08,0.32 3.04,0.81 0.64,0.16 1.12,0.48 1.76,0.8 1.28,0.8 2.41,1.76 3.37,3.04 L 11.54,4 c 0.32,0.17 0.48,0.49 0.64,0.65 H -1.76 c -0.16,0 -0.16,-0.16 -0.16,-0.32 0,0 0,-0.16 0,-0.16 -0.16,-0.49 -0.16,-1.13 0,-1.61 C -1.6,1.6 -0.96,0.64 0,0 Z m 54.639999,6.41 -1.45,5.61 h -7.05 L 47.59,6.41 Z M 15.22,4.65 C 14.9,4.17 14.42,3.52 13.94,2.88 12.5,1.28 11.22,0.16 9.93,-0.65 8.81,-1.45 7.85,-1.77 6.89,-2.25 5.93,-2.57 4.81,-2.73 3.69,-2.73 c -1.93,0 -3.69,0.48 -5.13,1.28 -1.44,0.8 -2.4,2.09 -2.89,3.69 -0.16,0.64 -0.16,1.28 0,1.93 v 0 c 0,0.16 0.16,0.32 0.16,0.48 h -3.68 l -0.48,1.76 h 3.68 l -4.32,15.710001 h 2.56 L -2.08,6.41 h 16.82 l -1.12,4.01 H 3.37 c -0.33,0 -0.65,0.16 -1.13,0.32 -0.48,0 -0.8,0.48 -0.96,0.96 0,0.32 0,0.8 1.12,2.25 l 0.16,0.16 c 0.97,1.12 1.61,1.6 2.09,1.6 0.8,0 1.12,-0.32 1.28,-0.48 l 0.64,-3.05 h 6.73 l -2.72,9.940001 h 2.56 L 17.299999,6.41 h 9.140002 L 25,11.54 h -2.25 c -0.16,0 -0.32,0 -0.48,0 -0.479999,0.16 -0.800001,0.32 -0.960001,0.64 -0.159999,0.8 0.16,1.61 1.280001,2.57 0.959999,1.12 1.76,1.6 2.57,1.6 0.479999,0 0.960001,-0.159999 1.280001,-0.8 0,-0.16 0.159999,-0.32 0.159999,-0.64 l 2.24,-8.5 h 6.09 l -4.17,15.710001 h 2.570002 L 37.490002,6.41 H 45.02 l -1.439998,5.61 H 41.82 c -0.16,0 -0.48,0 -0.8,0.16 -0.319999,0 -0.639999,0.32 -0.799999,0.8 -0.16,0.48 0.32,1.29 1.279999,2.41 0.959999,0.96 1.759998,1.6 2.240002,1.6 0.639999,0 0.959999,-0.16 1.119999,-0.48 C 45.02,16.35 45.02,16.190001 45.02,16.030001 L 45.66,13.79 h 6.889999 l -2.239998,8.330001 h 2.559998 L 57.200001,6.41 h 3.36 l 0.32,-1.76 z"
             style="fill:#3e3e3f;fill-opacity:1;fill-rule:nonzero;stroke:none"
             id="path866" />
        </g>
        <g
           id="g868"
           transform="translate(668.20001,438.35999)">
          <path
             d="M 0,0 H 4.81 L 3.21,6.09 H -2.88 L -1.6,1.12 c 0.32,-0.96 0,-1.76 -0.64,-2.4 -0.64,-0.48 -1.6,-0.8 -2.72,-0.8 -1.13,0 -2.25,0.16 -3.21,0.8 -0.8,0.48 -1.44,1.28 -1.76,2.4 -0.16,0.16 0,0.64 0,1.12 v 0.17 c 0.16,0.16 0.16,0.32 0.16,0.48 l 0.16,0.16 h 2.4 L -7.53,2.73 c 0,-0.16 0,-0.16 -0.16,-0.32 0,-0.49 0,-0.81 0,-1.29 0.16,-0.48 0.48,-0.8 0.8,-1.12 0.48,-0.32 0.8,-0.48 1.45,-0.48 0.64,0 1.12,0.16 1.28,0.32 C -4,0.16 -4,0.48 -4,0.8 l -1.44,5.29 h -2.41 c -0.16,0 -0.48,0 -0.8,0.16 -0.32,0.32 -0.48,0.48 -0.64,0.8 0,0.33 0,0.81 1.6,2.41 1.44,1.6 2.09,1.92 2.41,1.92 0.32,0 0.8,-0.16 0.96,-0.48 0.16,-0.16 0.16,-0.48 0.32,-0.64 l 0.48,-2.24 h 6.25 l -2.09,7.37 c -0.8,0 -1.44,0.32 -2.24,0.640001 -0.32,0.16 -0.8,0.489999 -1.44,0.809999 L -3.2,17 l 1.6,1.6 0.16,-0.159999 c 0.32,-0.32 0.64,-0.640002 0.8,-0.640002 C 0,17.32 0.64,17.16 1.28,17.16 c 0.65,0 1.13,0.16 1.45,0.479999 0.32,0.32 0.48,0.800002 0.32,1.280001 -0.16,0.799999 -0.8,1.440001 -1.61,1.92 -0.96,0.49 -1.92,0.65 -2.88,0.65 C -3.2,21.49 -4.8,21 -6.09,19.879999 -6.57,19.4 -7.05,18.92 -7.53,18.120001 l -0.16,-0.160002 -2.08,1.76 0.16,0.16 C -8.81,20.68 -8.17,21.17 -7.53,21.65 c 1.76,1.12 3.69,1.6 5.93,1.6 1.76,0 3.37,-0.32 4.65,-1.120001 C 4.49,21.33 5.29,20.360001 5.61,19.08 5.93,17.959999 5.61,17.16 4.97,16.35 4.49,15.87 3.85,15.55 3.21,15.39 L 7.37,0 h 9.14 l -1.45,5.13 h -2.24 -0.16 c -0.16,0 -0.16,0 -0.16,0 -0.48,0 -0.96,0.16 -1.12,0.64 -0.16,0.8 0.32,1.61 1.28,2.57 0.96,1.12 1.92,1.6 2.56,1.6 0.64,0 0.970001,-0.16 1.29,-0.8 0.16,-0.16 0.16,-0.32 0.16,-0.64 L 18.91,0 H 25 L 20.83,15.71 H 23.4 L 27.559999,0 H 44.860001 L 43.900002,3.37 H 35.57 c -1.279999,0 -2.239998,0.32 -3.200001,0.96 C 31.41,4.81 30.93,5.77 30.610001,6.89 c -0.49,1.77 0,3.85 1.599998,5.94 0.639999,0.8 1.440003,1.6 2.560001,2.56 v 0.16 l 2.079998,-1.44 -0.159999,-0.16 C 35.73,13.15 34.93,12.35 34.450001,11.7 33.009998,9.94 32.689999,8.34 33.009998,6.73 c 0.16,-0.48 0.480004,-0.96 0.960003,-1.28 0.48,-0.32 1.279999,-0.32 2.239998,-0.32 h 7.209999 l -2.719997,10.58 h 2.399997 L 47.43,0 h 6.09 L 49.189999,15.71 H 51.75 L 55.919998,0 h 16.980004 l -1.120003,4.01 h -10.25 c -0.32,0 -0.799999,0.16 -1.119999,0.32 -0.48,0 -0.799999,0.48 -0.970001,0.96 0,0.32 0,0.8 1.290001,2.41 0.959999,1.12 1.600002,1.6 2.080001,1.6 0.48,0 0.959999,-0.16 1.119999,-0.48 l 0.800003,-3.05 h 6.57 l -2.560005,9.94 h 2.400001 L 75.470001,0 h 3.360001 l 0.479996,-1.76 H 0.48 Z"
             style="fill:#3e3e3f;fill-opacity:1;fill-rule:nonzero;stroke:none"
             id="path870" />
        </g>
        <g
           id="g872">
          <path
             d="m 608.28003,438.35999 -0.80005,3.37002 h -5.44995 c -1.28003,0 -2.40003,0.16 -3.52002,0.79999 -0.16003,0.16 -0.32001,0.16 -0.64002,0.32001 -0.47998,0.47998 -0.96997,0.79998 -1.28997,1.27999 L 591.62,438.35999 Z m -12.66003,7.54 c 0,0 0,0 0,0 l -0.15998,0.16001 c 0,0.16 0,0.32 0,0.48001 -0.16003,0.16 -0.48004,0.16 -0.64001,0.31998 -0.96003,0.32 -1.91999,0.48001 -2.72003,0.48001 H 591.94 c -0.96002,0 -1.76001,-0.16001 -2.25,-0.63999 -0.47998,-0.48001 -0.64001,-1.12002 -0.47998,-1.93002 L 590.5,440.12 Z m 16.17999,-13.94998 c 0.48999,-0.48001 1.29004,-0.65002 2.09002,-0.65002 0.64002,0 1.27997,0.17001 1.76001,0.33001 1.12,0.32001 1.75995,1.12 2.39997,2.4 0.32,0.64001 0.48004,1.44 0.64001,2.57001 h -7.84997 c 0,-0.16001 -0.16004,-0.32001 -0.16004,-0.48001 v -0.16999 c -0.32001,-0.64001 -0.32001,-1.44 -0.15997,-2.08001 0.32001,-0.79999 0.63995,-1.44001 1.27997,-1.91999 z m 20.66998,7.37 c 0,-0.32001 -0.15997,-0.48001 -0.31995,-0.96002 H 638.56 l -2.08002,8.02001 c -0.63995,0.63999 -1.12,0.96 -1.44,1.28 -1.44995,0.79999 -2.72998,1.12 -4.16999,1.12 v 0 c -1.76,0 -2.88,-0.48001 -3.52001,-1.44 -0.15998,-0.32001 -0.31995,-0.79999 -0.31995,-1.44001 0.95996,-0.32 1.75995,-0.48999 2.39996,-0.64999 1.76001,-0.79999 2.88001,-1.92001 3.35999,-3.51999 0.16003,-0.80002 0,-1.61001 -0.32001,-2.41 z m -12.32996,-6.09 c -0.79998,-1.76001 -2.09002,-3.05002 -4.01001,-3.37002 -0.47998,-0.15998 -1.11999,-0.31998 -1.91998,-0.31998 -1.44,0 -2.73004,0.47998 -3.85004,1.11999 -1.11999,0.63999 -1.76,1.60999 -2.23998,3.04999 -0.15998,0.64002 0,1.44 0.16003,2.24002 0.15997,0.32999 0.15997,0.48999 0.31995,0.65 h -47.41999 l -0.48999,1.75998 h 10.26001 l -0.96002,4.01001 c -0.15997,0.48001 -0.47998,0.95999 -1.12,1.44 -0.48999,0.32 -1.28997,0.48001 -2.08996,0.48001 -0.48004,0 -0.96002,0 -1.28003,-0.16001 -0.47998,-0.32 -0.64002,-0.48001 -0.64002,-0.48001 l -1.11999,-2.55999 -2.23999,1.28 0.15997,0.16 c 0.16004,0.48001 0.32001,1.11999 0.48004,1.44 0.64002,1.12 1.27997,2.41 2.07996,3.85001 0.64001,0.95999 1.28003,2.07998 2.24005,3.36999 0.63996,0.95999 1.44,1.76001 2.25,2.88001 l 0.15997,0.16 2.24,-1.44 -0.15998,-0.16001 c -0.32001,-0.32 -0.48004,-0.64001 -0.79999,-0.80001 -0.16003,-0.15998 -0.32,-0.31998 -0.48004,-0.47998 -0.32,-0.48001 -0.63995,-0.96 -0.95996,-1.29001 -0.33002,-0.48001 -0.65002,-0.79999 -0.97003,-1.28 l -1.59998,-2.88001 c 0.95997,0.16001 2.07996,0 3.37,-0.48999 0.79999,-0.32 1.59998,-0.64001 2.08002,-1.11999 0.31994,-0.64002 0.63995,-1.12 0.79998,-1.76001 l 1.12,-4.17001 h 6.72998 l -4.32001,15.71002 h 2.56 l 4.16003,-15.71002 h 5.76996 l -1.75995,6.25 c -0.32,1.29 0,2.41 1.12,3.21002 0.95996,0.95999 2.23999,1.28 3.84998,1.28 0.64001,0 1.44,0 2.23998,-0.32001 0.48005,-0.16 0.96003,-0.32001 1.60004,-0.48001 0,0.80002 0.47998,1.6 0.95996,2.25 0.16004,0.16 0.32001,0.32001 0.48004,0.48001 v 0 c 0.96997,0.95999 2.08997,1.6 3.52997,1.92001 L 591.78003,458.72 H 595.62 l 6.24999,-4.97 3.53003,4.97 h 2.88001 l -4.33002,-5.61001 c 1.13001,-0.15998 2.08997,-0.31998 3.04999,-0.79999 1.28003,-0.48001 2.40002,-1.28 3.52002,-2.25 l 0.32001,-0.16001 -1.92005,-1.11999 -0.15997,0.16 c -1.60004,1.60999 -3.52002,2.41001 -5.92999,2.41001 -1.76001,0 -3.04004,-0.64002 -4,-1.61002 -0.79999,-0.79999 -1.12,-1.75998 -1.12,-2.88 0.15997,-0.15998 0.15997,-0.31998 0.15997,-0.63999 0,-0.16 0.16004,-0.32001 0.16004,-0.32001 0.31995,-0.64999 0.79999,-1.13 1.43994,-1.60998 0.80005,-0.48001 1.60004,-0.80002 2.56006,-0.80002 h 7.36999 l 1.44001,-5.13 h 7.52996 l -4.32,15.71002 h 2.56 l 4.17004,-15.71002 h 8.48999 c 0.32001,0.48001 0.47998,0.80001 0.63995,0.96002 0.32001,0.79999 0.48004,1.60998 0.32001,2.25 -0.32001,0.79999 -0.79999,1.6 -1.59998,2.07998 -0.64001,0.32001 -1.59997,0.48001 -2.57,0.48001 -0.15998,0 -0.32001,0 -0.47998,0 -0.16004,0 -0.32001,-0.16 -0.48004,-0.16 0,0 -0.15998,0 -0.31995,0 H 624.62 v 0.16 c -0.47999,1.60999 -0.15998,3.04999 0.79998,4.32999 0.97003,1.28 2.73004,2.09 5.13001,2.09 v 0 c 1.44,0 2.72003,-0.31998 4.16998,-0.81 0.16003,-0.16 0.64001,-0.31998 0.96002,-0.47998 l -1.27997,4.81 h 2.56 L 641.13,438.35999 h 3.35999 l 0.47998,-1.75998 H 620.94 c -0.15997,-1.45002 -0.32,-2.57001 -0.79999,-3.37 z"
             style="fill:#3e3e3f;fill-opacity:1;fill-rule:nonzero;stroke:none"
             id="path874" />
        </g>
        <g
           id="g876">
          <path
             d="m 515.03003,431.95001 c 0.47998,-0.48001 1.11999,-0.65002 2.07996,-0.65002 0.65002,0 1.29003,0.17001 1.77001,0.33001 0.96003,0.32001 1.76001,1.12 2.40003,2.4 0.15997,0.48001 0.47998,1.44 0.63995,2.57001 h -7.84997 c 0,-0.16001 -0.16004,-0.32001 -0.16004,-0.65 -0.31994,-0.64001 -0.31994,-1.44 -0.15997,-2.08001 0.32001,-0.79999 0.64001,-1.44001 1.28003,-1.91999 z m 20.66998,7.37 c 0,-0.32001 -0.16003,-0.48001 -0.32001,-0.96002 h 6.40998 l -2.07996,8.02001 c -0.65002,0.63999 -1.13,0.96 -1.61004,1.28 -1.27997,0.79999 -2.56,1.12 -4,1.12 H 533.94 c -1.59997,0 -2.72998,-0.48001 -3.36999,-1.44 -0.16004,-0.48001 -0.32001,-0.96 -0.32001,-1.44001 0.96002,-0.32 1.76001,-0.48999 2.40997,-0.64999 1.76001,-0.79999 2.88001,-1.92001 3.36005,-3.51999 0.15997,-0.80002 0,-1.61001 -0.32001,-2.41 z m -12.34003,-6.09 c -0.79998,-1.76001 -2.23998,-3.05002 -4,-3.37002 -0.47998,-0.15998 -1.11999,-0.31998 -1.92999,-0.31998 -1.44,0 -2.88,0.47998 -3.83996,1.11999 -1.12006,0.63999 -1.92002,1.76999 -2.24002,3.04999 -0.16001,0.64002 -0.16001,1.44 0.16,2.24002 0,0.32999 0.16,0.48999 0.16,0.65 h -47.27002 l -0.47998,1.75998 h 4.65 l -1.60001,6.09002 h -6.09 l 1.28,-4.97 c 0.32001,-0.96002 0.16001,-1.76001 -0.64001,-2.40002 -0.47998,-0.47998 -1.44,-0.79999 -2.72998,-0.79999 -1.12,0 -2.08002,0.16 -3.04001,0.79999 -0.95999,0.48001 -1.60001,1.28 -1.76001,2.40002 -0.16,0.31998 -0.16,0.63999 0,1.12 0,0.16998 0,0.48999 0.16,0.64999 v 0.16 h 2.4 l -0.15998,-0.32 c -0.16,-0.16001 -0.16,-0.16001 -0.16,-0.32001 -0.16,-0.32999 -0.16,-0.81 0,-1.28998 0.16,-0.48001 0.31998,-0.80002 0.79999,-1.12002 0.32001,-0.31998 0.79999,-0.47999 1.28,-0.47999 0.64001,0 1.11999,0.16001 1.28,0.32001 0.33001,0.31998 0.33001,0.63999 0.17001,0.95999 l -1.45001,5.29001 h -2.23999 c -0.32001,0 -0.48001,0 -0.80002,0.15998 -0.31998,0.32 -0.63999,0.48001 -0.63999,0.80001 -0.16,0.16999 -0.16,0.65 1.44001,2.41001 1.44,1.6 2.07998,1.91998 2.39999,1.91998 0.32001,0 0.79999,-0.16 1.12,-0.47998 0,-0.16 0.17001,-0.48001 0.17001,-0.64001 l 0.63998,-2.24 h 6.08002 l -2.08002,7.69001 H 466.97 l 4.16,-15.71002 h 6.09 l -4.17001,15.71002 h 2.41 L 479.78,438.35999 h 12.66 l -0.95999,4.01001 c -0.16,0.64001 -0.48001,0.95999 -1.12002,1.44 -0.47999,0.32 -1.12,0.48001 -2.09,0.48001 -0.47998,0 -0.79999,0 -1.28,-0.16001 -0.47998,-0.32 -0.63998,-0.48001 -0.63998,-0.48001 l -1.12,-2.55999 -2.24002,1.28 0.16,0.16 c 0.16001,0.48001 0.32001,0.95999 0.64002,1.44 0.47998,1.12 1.11999,2.41 1.91998,3.85001 0.48001,0.95999 1.28,1.91998 2.24002,3.36999 0.81,1.12 1.60999,1.91999 2.25,2.88001 l 0.15998,0.16 2.24002,-1.44 L 492.28,452.47 c -0.48001,-0.48001 -0.79999,-0.95999 -0.95999,-1.11999 L 490.84,450.87 c -0.63999,-0.81 -1.12,-1.44999 -1.44001,-2.09 L 487.63,445.89999 c 0.96,0.16001 2.09,0 3.37,-0.48999 0.79999,-0.32 1.60001,-0.64001 2.07999,-1.11999 0.48001,-0.64002 0.80001,-1.12 0.80001,-1.76001 l 1.28,-4.17001 h 17.79001 l -0.96002,3.37002 H 503.66 c -1.29,0 -2.41,0.31998 -3.20999,0.95999 -0.96002,0.63999 -1.6,1.44 -1.76001,2.56 -0.64001,1.76999 0,3.85001 1.60001,5.94 0.47998,0.79999 1.44,1.60001 2.39999,2.56 l 0.16001,0.16 2.08999,-1.44 -0.32,-0.16 c -0.96,-0.79999 -1.60999,-1.60001 -2.09,-2.25 -1.44,-1.76001 -1.76001,-3.35999 -1.44,-4.97 0.16,-0.48001 0.48001,-0.96 0.95999,-1.28 0.48001,-0.32001 1.29001,-0.32001 2.25,-0.32001 h 7.21002 L 508.62,454.07001 h 2.57 l 4.32001,-15.71002 H 521.44 l -4.16998,15.71002 h 2.57001 L 524,438.35999 h 8.34003 c 0.47998,0.48001 0.63995,0.80001 0.79998,0.96002 0.32001,0.79999 0.47999,1.44998 0.32001,2.25 -0.32001,0.79999 -0.80005,1.6 -1.61004,2.07998 -0.63996,0.32001 -1.59998,0.48001 -2.56,0.48001 -0.15998,0 -0.32001,0 -0.63996,0 0,0 -0.16003,0 -0.32,-0.16 0,0 -0.16004,0 -0.32001,0 h -0.16003 v 0.16 c -0.47999,1.60999 -0.15998,3.04999 0.80004,4.32999 0.95997,1.28 2.71997,2.09 4.96998,2.09 h 0.16003 c 1.43994,-0.15998 2.71997,-0.31998 4,-0.81 0.31995,-0.16 0.79999,-0.31998 1.11999,-0.47998 l -1.28002,4.81 h 2.57 l 4.15998,-15.71002 h 3.36999 l 0.48004,-1.75998 h -24.04004 c -0.15997,-1.45002 -0.47998,-2.57001 -0.79999,-3.37 z"
             style="fill:#3e3e3f;fill-opacity:1;fill-rule:nonzero;stroke:none"
             id="path878" />
        </g>
        <g
           id="g880"
           transform="translate(274.54001,484.85999)">
          <path
             d="M 0,0 5.13,-18.440001 13.3,-7.54 c 0.32,0.32 0.48,0.64 0.8,0.97 0.16,0.32 0.32,0.8 0.64,1.12 l 3.36,-12.189999 h 2.73 L 15.7,0.64 7.21,-10.26 C 7.05,-10.58 6.89,-10.9 6.57,-11.22 6.41,-11.55 6.25,-11.87 6.09,-12.35 L 2.72,0 Z"
             style="fill:#3e3e3f;fill-opacity:1;fill-rule:nonzero;stroke:none"
             id="path882" />
        </g>
        <g
           id="g884"
           transform="translate(300.66,477.95999)">
          <path
             d="m 0,0 h 4.96 l -0.8,-4 c 0,-0.32 0,-0.65 0,-0.97 0,-0.32 0,-0.64 0,-1.12 -0.32,0.48 -0.48,0.8 -0.64,1.12 C 3.2,-4.65 3.04,-4.32 2.88,-4 Z M 5.92,6.9 5.28,2.41 H -1.77 L -5.13,6.9 H -8.18 L 5.6,-11.54 8.97,6.9 Z"
             style="fill:#3e3e3f;fill-opacity:1;fill-rule:nonzero;stroke:none"
             id="path886" />
        </g>
        <g
           id="g888"
           transform="translate(318.44,469.63)">
          <path
             d="M 0,0 -4.17,15.23 H -7.05 L -2.88,0 h -4.65 l 0.64,-2.41 H 5.45 L 4.65,0 Z"
             style="fill:#3e3e3f;fill-opacity:1;fill-rule:nonzero;stroke:none"
             id="path890" />
        </g>
        <g
           id="g892">
          <path
             d="M 321.64001,484.85999 326.60999,467.22 H 329.5 l -4.97,17.63999 z"
             style="fill:#3e3e3f;fill-opacity:1;fill-rule:nonzero;stroke:none"
             id="path894" />
        </g>
        <g
           id="g896"
           transform="translate(345.20001,476.04001)">
          <path
             d="m 0,0 c 0.32,-0.8 0.32,-1.76 0.32,-2.56 -0.16,-0.81 -0.48,-1.45 -0.8,-2.09 -0.48,-0.64 -0.97,-1.12 -1.77,-1.44 -0.64,-0.32 -1.44,-0.48 -2.24,-0.48 -0.96,0 -1.76,0.16 -2.72,0.48 -0.8,0.32 -1.61,0.8 -2.41,1.44 -0.8,0.64 -1.44,1.28 -2.08,2.09 -0.48,0.8 -0.96,1.76 -1.12,2.56 -0.32,0.96 -0.32,1.76 -0.32,2.57 0.16,0.8 0.48,1.44 0.8,2.08 0.48,0.64 1.12,1.12 1.76,1.44 0.64,0.32 1.44,0.48 2.41,0.48 0.8,0 1.6,-0.16 2.56,-0.48 0.8,-0.32 1.6,-0.8 2.4,-1.44 0.8,-0.64 1.6,-1.28 2.09,-2.08 C -0.64,1.76 -0.16,0.96 0,0 Z M 3.04,0 C 2.72,1.28 2.08,2.41 1.44,3.53 0.64,4.65 -0.32,5.77 -1.61,6.57 -2.73,7.54 -3.85,8.18 -5.13,8.66 -6.41,9.14 -7.69,9.3 -8.98,9.3 c -1.28,0 -2.4,-0.16 -3.52,-0.64 -0.96,-0.48 -1.76,-1.12 -2.4,-2.09 -0.64,-0.8 -1.130001,-1.92 -1.290001,-2.88 -0.159999,-1.12 0,-2.41 0.330001,-3.69 0.32,-1.28 0.96,-2.4 1.76,-3.53 0.64,-1.12 1.6,-2.08 2.88,-3.04 1.12,-0.81 2.24,-1.61 3.53,-1.93 1.28,-0.48 2.56,-0.8 3.84,-0.8 1.28,0 2.4,0.32 3.53,0.8 0.96,0.32 1.76,1.12 2.4,1.93 0.64,0.96 1.12,1.92 1.28,3.04 0.16,1.13 0,2.25 -0.32,3.53 z"
             style="fill:#3e3e3f;fill-opacity:1;fill-rule:nonzero;stroke:none"
             id="path898" />
        </g>
        <g
           id="g900"
           transform="translate(348.56,484.85999)">
          <path
             d="M 0,0 5.13,-18.440001 13.46,-7.54 c 0.16,0.32 0.32,0.64 0.64,0.97 0.16,0.32 0.48,0.8 0.64,1.12 l 3.370001,-12.189999 H 20.83 L 15.7,0.64 7.21,-10.26 C 7.05,-10.58 6.89,-10.9 6.57,-11.22 6.41,-11.55 6.25,-11.87 6.09,-12.35 L 2.73,0 Z"
             style="fill:#3e3e3f;fill-opacity:1;fill-rule:nonzero;stroke:none"
             id="path902" />
        </g>
        <g
           id="g904"
           transform="translate(374.67999,477.95999)">
          <path
             d="m 0,0 h 4.96 l -0.8,-4 c 0,-0.32 0,-0.65 0,-0.97 0,-0.32 0,-0.64 0,-1.12 -0.32,0.48 -0.48,0.8 -0.64,1.12 C 3.36,-4.65 3.04,-4.32 2.88,-4 Z M 5.93,6.9 5.28,2.41 H -1.76 L -5.13,6.9 H -8.01 L 5.61,-11.54 8.97,6.9 Z"
             style="fill:#3e3e3f;fill-opacity:1;fill-rule:nonzero;stroke:none"
             id="path906" />
        </g>
        <g
           id="g908">
          <path
             d="M 385.89001,484.85999 390.85999,467.22 h 2.88 l -4.31998,15.07001 h 6.56998 l -0.79999,2.56998 z"
             style="fill:#3e3e3f;fill-opacity:1;fill-rule:nonzero;stroke:none"
             id="path910" />
        </g>
        <g
           id="g912"
           transform="translate(411.20999,474.60001)">
          <path
             d="M 0,0 H 0.8 C 2.4,0 3.52,-0.16 4.16,-0.48 4.64,-0.8 5.13,-1.45 5.45,-2.41 5.61,-3.37 5.61,-4.01 5.13,-4.33 4.64,-4.81 3.68,-4.97 2.08,-4.97 H 1.44 Z m -0.8,2.4 -2.25,7.86 H -5.77 L -0.8,-7.38 h 4.32 c 1.28,0 2.25,0 2.89,0.16 0.48,0.16 0.96,0.32 1.28,0.64 0.48,0.48 0.8,0.97 0.96,1.77 0,0.64 0,1.44 -0.16,2.24 -0.32,0.8 -0.64,1.61 -1.12,2.41 C 6.73,0.48 6.25,1.12 5.61,1.44 4.96,1.76 4.32,1.92 3.68,2.08 3.04,2.24 2.08,2.4 0.8,2.4 H 0.32 Z"
             style="fill:#3e3e3f;fill-opacity:1;fill-rule:nonzero;stroke:none"
             id="path914" />
        </g>
        <g
           id="g916"
           transform="translate(421.45999,477.95999)">
          <path
             d="M 0,0 H 4.97 L 4.33,-4 C 4.17,-4.32 4.17,-4.65 4.17,-4.97 c 0,-0.32 0,-0.64 0,-1.12 -0.16,0.48 -0.48,0.8 -0.64,1.12 C 3.37,-4.65 3.21,-4.32 3.05,-4 Z M 6.09,6.9 5.29,2.41 H -1.76 L -4.96,6.9 H -8.01 L 5.61,-11.54 9.13,6.9 Z"
             style="fill:#3e3e3f;fill-opacity:1;fill-rule:nonzero;stroke:none"
             id="path918" />
        </g>
        <g
           id="g920"
           transform="translate(432.20001,484.85999)">
          <path
             d="m 0,0 2.24,-8.02 -3.2,-9.619999 H 1.92 L 4,-11.71 c 0,0.16 0.16,0.33 0.16,0.65 0.16,0.32 0.16,0.48 0.16,0.8 0.16,-0.32 0.48,-0.48 0.64,-0.8 0.16,-0.16 0.32,-0.49 0.64,-0.65 l 5.45,-5.929999 h 2.89 L 5.12,-8.02 2.88,0 Z"
             style="fill:#3e3e3f;fill-opacity:1;fill-rule:nonzero;stroke:none"
             id="path922" />
        </g>
        <g
           id="g924"
           transform="translate(458.47,476.20001)">
          <path
             d="m 0,0 c 0,-0.16 0,-0.64 0.16,-1.12 0,-0.64 0.16,-0.96 0.16,-1.28 -0.16,0.32 -0.48,0.8 -0.64,1.12 -0.32,0.48 -0.48,0.8 -0.8,1.28 l -7.37,9.46 -1.92,-9.62 c 0,-0.48 -0.16,-0.8 -0.16,-1.28 0,-0.32 0,-0.64 0,-0.96 -0.16,0.32 -0.32,0.64 -0.48,1.12 -0.16,0.32 -0.32,0.8 -0.64,1.28 l -4.33,8.66 h -2.56 l 9.29,-18.44 2.08,11.22 c 0,0.16 0.16,0.49 0.16,0.81 0,0.48 0.16,0.96 0.16,1.6 0.32,-0.48 0.8,-1.12 1.29,-1.92 0.16,-0.33 0.32,-0.49 0.48,-0.49 L 3.05,-9.78 2.25,8.66 h -2.73 z"
             style="fill:#3e3e3f;fill-opacity:1;fill-rule:nonzero;stroke:none"
             id="path926" />
        </g>
        <g
           id="g928"
           transform="translate(463.44,484.85999)">
          <path
             d="m 0,0 4.97,-17.639999 h 9.77 L 14.1,-15.23 H 7.05 l -1.12,4.49 h 6.89 l -0.64,2.4 H 5.13 l -1.6,5.77 h 7.04 L 9.93,0 Z"
             style="fill:#3e3e3f;fill-opacity:1;fill-rule:nonzero;stroke:none"
             id="path930" />
        </g>
        <g
           id="g932"
           transform="translate(477.06,484.85999)">
          <path
             d="M 0,0 5.13,-18.440001 13.46,-7.54 c 0.16,0.32 0.32,0.64 0.64,0.97 0.16,0.32 0.32,0.8 0.64,1.12 l 3.36,-12.189999 h 2.73 L 15.7,0.64 7.21,-10.26 C 7.05,-10.58 6.89,-10.9 6.57,-11.22 6.41,-11.55 6.25,-11.87 6.09,-12.35 L 2.72,0 Z"
             style="fill:#3e3e3f;fill-opacity:1;fill-rule:nonzero;stroke:none"
             id="path934" />
        </g>
        <g
           id="g936"
           transform="translate(507.5,469.63)">
          <path
             d="M 0,0 -4.33,15.23 H -7.21 L -2.88,0 h -4.81 l 0.8,-2.41 H 5.29 L 4.65,0 Z"
             style="fill:#3e3e3f;fill-opacity:1;fill-rule:nonzero;stroke:none"
             id="path938" />
        </g>
        <g
           id="g940"
           transform="translate(510.54999,481.32999)">
          <path
             d="m 0,0 2.56,-1.12 c 0,0.8 0.32,1.44 0.8,1.92 0.32,0.32 1.12,0.65 1.92,0.65 0.96,0 1.6,-0.33 2.25,-0.81 C 8.17,0.16 8.65,-0.48 8.81,-1.28 9.13,-2.24 8.49,-3.2 7.04,-4.01 6.88,-4.17 6.72,-4.17 6.56,-4.33 4.8,-5.29 3.84,-6.09 3.36,-6.89 2.88,-7.69 2.88,-8.66 3.2,-9.78 c 0.32,-1.28 1.28,-2.56 2.4,-3.37 1.28,-0.96 2.73,-1.44 4.33,-1.44 1.28,0 2.24,0.32 3.04,0.8 0.64,0.48 1.12,1.29 1.12,2.25 l -2.56,1.12 c -0.16,-0.64 -0.48,-0.96 -0.8,-1.28 -0.32,-0.16 -0.8,-0.32 -1.28,-0.32 -0.8,0 -1.44,0.16 -2.08,0.48 -0.49,0.48 -0.97,0.96 -1.13,1.76 -0.32,0.96 0.48,1.93 2.25,2.89 0,0.16 0.16,0.16 0.32,0.16 1.44,0.8 2.4,1.6 2.88,2.4 0.48,0.8 0.48,1.77 0.16,2.89 C 11.37,0.16 10.57,1.61 9.13,2.57 7.85,3.53 6.24,4.01 4.48,4.01 3.04,4.01 1.92,3.69 1.12,3.05 0.32,2.25 0,1.28 0,0 Z"
             style="fill:#3e3e3f;fill-opacity:1;fill-rule:nonzero;stroke:none"
             id="path942" />
        </g>
        <g
           id="g944"
           transform="translate(549,471.54999)">
          <path
             d="m 0,0 c -0.48,-0.8 -1.28,-1.28 -2.08,-1.6 -0.81,-0.32 -1.77,-0.48 -2.73,-0.48 -1.92,0 -3.68,0.48 -5.29,1.76 -1.44,1.28 -2.56,2.89 -3.04,4.81 -0.64,1.92 -0.48,3.53 0.48,4.81 0.8,1.28 2.08,1.76 3.85,1.76 1.12,0 2.08,-0.16 3.2,-0.48 0.96,-0.32 2.08,-0.96 3.2,-1.6 l -0.96,3.21 c -0.96,0.48 -1.92,0.96 -2.88,1.28 -0.96,0.16 -1.92,0.32 -3.04,0.32 -1.29,0 -2.57,-0.16 -3.53,-0.64 -1.12,-0.48 -1.92,-1.12 -2.56,-1.92 -0.64,-0.97 -0.96,-1.93 -1.12,-3.05 -0.16,-1.12 0,-2.41 0.32,-3.69 0.32,-1.28 0.96,-2.56 1.76,-3.69 0.8,-1.12 1.76,-2.08 2.88,-2.88 0.96,-0.97 2.25,-1.61 3.53,-2.09 1.28,-0.32 2.56,-0.64 3.84,-0.64 0.96,0 1.93,0.16 2.89,0.48 0.8,0.32 1.6,0.8 2.4,1.28 z"
             style="fill:#3e3e3f;fill-opacity:1;fill-rule:nonzero;stroke:none"
             id="path946" />
        </g>
        <g
           id="g948"
           transform="translate(566.46002,476.04001)">
          <path
             d="m 0,0 c 0.32,-0.8 0.32,-1.76 0.32,-2.56 -0.16,-0.81 -0.48,-1.45 -0.8,-2.09 -0.48,-0.64 -0.96,-1.12 -1.76,-1.44 -0.64,-0.32 -1.44,-0.48 -2.24,-0.48 -0.97,0 -1.77,0.16 -2.73,0.48 -0.8,0.32 -1.6,0.8 -2.4,1.44 -0.8,0.64 -1.44,1.28 -2.08,2.09 -0.48,0.8 -0.97,1.76 -1.13,2.56 -0.32,0.96 -0.32,1.76 -0.32,2.57 0.16,0.8 0.48,1.44 0.81,2.08 0.48,0.64 1.12,1.12 1.76,1.44 0.64,0.32 1.44,0.48 2.4,0.48 0.8,0 1.6,-0.16 2.56,-0.48 C -4.8,5.77 -4,5.29 -3.2,4.65 -2.4,4.01 -1.76,3.37 -1.12,2.57 -0.64,1.76 -0.16,0.96 0,0 Z M 3.05,0 C 2.73,1.28 2.09,2.41 1.28,3.53 0.64,4.65 -0.32,5.77 -1.6,6.57 -2.72,7.54 -3.84,8.18 -5.12,8.66 -6.41,9.14 -7.69,9.3 -8.97,9.3 c -1.28,0 -2.4,-0.16 -3.52,-0.64 -0.97,-0.48 -1.77,-1.12 -2.41,-2.09 -0.64,-0.8 -1.12,-1.92 -1.28,-2.88 -0.16,-1.12 0,-2.41 0.32,-3.69 0.32,-1.28 0.96,-2.4 1.76,-3.53 0.64,-1.12 1.61,-2.08 2.89,-3.04 1.12,-0.81 2.24,-1.61 3.52,-1.93 1.28,-0.48 2.57,-0.8 3.85,-0.8 1.28,0 2.4,0.32 3.52,0.8 0.96,0.32 1.76,1.12 2.41,1.93 0.64,0.96 1.12,1.92 1.28,3.04 0.16,1.13 0,2.25 -0.32,3.53 z"
             style="fill:#3e3e3f;fill-opacity:1;fill-rule:nonzero;stroke:none"
             id="path950" />
        </g>
        <g
           id="g952"
           transform="translate(576.08002,474.76001)">
          <path
             d="M 0,0 H 0.48 C 2.08,0 3.04,-0.16 3.68,-0.48 4.32,-0.96 4.64,-1.61 4.96,-2.41 5.28,-3.37 5.12,-4.17 4.8,-4.49 4.32,-4.97 3.36,-5.13 1.92,-5.13 H 1.44 Z M -0.81,2.24 -3.05,10.1 H -5.77 L -0.81,-7.54 H 3.2 c 1.12,0 2.08,0 2.72,0.16 0.64,0.16 1.13,0.48 1.45,0.8 0.48,0.48 0.64,0.97 0.8,1.61 0.16,0.64 0,1.44 -0.16,2.24 C 7.53,-1.28 6.89,-0.16 6.08,0.64 5.12,1.44 4,1.92 2.56,2.08 L 6.4,10.1 H 3.2 L -0.49,2.24 Z"
             style="fill:#3e3e3f;fill-opacity:1;fill-rule:nonzero;stroke:none"
             id="path954" />
        </g>
        <g
           id="g956"
           transform="translate(590.5,474.60001)">
          <path
             d="M 0,0 H 0.64 C 2.24,0 3.36,-0.16 4,-0.48 4.64,-0.8 5.12,-1.45 5.28,-2.41 5.6,-3.37 5.44,-4.01 5.12,-4.33 4.64,-4.81 3.52,-4.97 2.08,-4.97 h -0.8 z m -0.81,2.4 -2.24,7.86 h -2.72 l 4.96,-17.64 h 4.33 c 1.28,0 2.24,0 2.72,0.16 0.65,0.16 1.13,0.32 1.45,0.64 0.48,0.48 0.64,0.97 0.8,1.77 0.16,0.64 0.16,1.44 -0.16,2.24 -0.16,0.8 -0.64,1.61 -1.12,2.41 C 6.72,0.48 6.08,1.12 5.44,1.44 4.96,1.76 4.32,1.92 3.68,2.08 3.04,2.24 2.08,2.4 0.8,2.4 H 0.16 Z"
             style="fill:#3e3e3f;fill-opacity:1;fill-rule:nonzero;stroke:none"
             id="path958" />
        </g>
        <g
           id="g960"
           transform="translate(615.48999,476.04001)">
          <path
             d="m 0,0 c 0.32,-0.8 0.32,-1.76 0.16,-2.56 0,-0.81 -0.32,-1.45 -0.8,-2.09 -0.32,-0.64 -0.96,-1.12 -1.6,-1.44 -0.64,-0.32 -1.45,-0.48 -2.41,-0.48 -0.8,0 -1.76,0.16 -2.56,0.48 -0.96,0.32 -1.76,0.8 -2.56,1.44 -0.8,0.64 -1.45,1.28 -1.93,2.09 -0.64,0.8 -0.96,1.76 -1.28,2.56 -0.16,0.96 -0.32,1.76 -0.16,2.57 0.16,0.8 0.32,1.44 0.8,2.08 0.48,0.64 0.96,1.12 1.77,1.44 0.64,0.32 1.44,0.48 2.24,0.48 0.96,0 1.76,-0.16 2.72,-0.48 0.8,-0.32 1.6,-0.8 2.41,-1.44 C -2.4,4.01 -1.76,3.37 -1.12,2.57 -0.64,1.76 -0.16,0.96 0,0 Z M 3.04,0 C 2.72,1.28 2.08,2.41 1.28,3.53 0.48,4.65 -0.48,5.77 -1.6,6.57 -2.72,7.54 -4.01,8.18 -5.29,8.66 -6.57,9.14 -7.69,9.3 -8.97,9.3 c -1.28,0 -2.41,-0.16 -3.53,-0.64 -0.96,-0.48 -1.76,-1.12 -2.4,-2.09 -0.8,-0.8 -1.12,-1.92 -1.28,-2.88 -0.16,-1.12 -0.16,-2.41 0.32,-3.69 0.32,-1.28 0.8,-2.4 1.6,-3.53 0.8,-1.12 1.76,-2.08 2.88,-3.04 1.13,-0.81 2.41,-1.61 3.69,-1.93 1.28,-0.48 2.56,-0.8 3.84,-0.8 1.29,0 2.41,0.32 3.37,0.8 1.12,0.32 1.92,1.12 2.56,1.93 0.64,0.96 1.12,1.92 1.28,3.04 0.16,1.13 0,2.25 -0.32,3.53 z"
             style="fill:#3e3e3f;fill-opacity:1;fill-rule:nonzero;stroke:none"
             id="path962" />
        </g>
        <g
           id="g964"
           transform="translate(623.97998,474.76001)">
          <path
             d="M 0,0 H 0.64 C 2.08,0 3.21,-0.16 3.85,-0.48 4.33,-0.96 4.81,-1.61 5.13,-2.41 5.29,-3.37 5.29,-4.17 4.81,-4.49 4.33,-4.97 3.53,-5.13 2.08,-5.13 H 1.44 Z m -0.8,2.24 -2.08,7.86 h -2.73 l 4.97,-17.64 h 4.01 c 1.12,0 2.08,0 2.56,0.16 0.64,0.16 1.12,0.48 1.44,0.8 0.48,0.48 0.8,0.97 0.8,1.61 0.16,0.64 0.16,1.44 -0.16,2.24 C 7.69,-1.28 7.05,-0.16 6.09,0.64 5.29,1.44 4.01,1.92 2.73,2.08 L 6.57,10.1 H 3.37 L -0.32,2.24 Z"
             style="fill:#3e3e3f;fill-opacity:1;fill-rule:nonzero;stroke:none"
             id="path966" />
        </g>
        <g
           id="g968"
           transform="translate(638.88,477.95999)">
          <path
             d="m 0,0 h 4.97 l -0.8,-4 c 0,-0.32 0,-0.65 0,-0.97 0,-0.32 0,-0.64 0,-1.12 -0.16,0.48 -0.48,0.8 -0.64,1.12 C 3.37,-4.65 3.21,-4.32 2.89,-4 Z M 6.09,6.9 5.29,2.41 H -1.76 L -4.96,6.9 H -8.01 L 5.61,-11.54 9.13,6.9 Z"
             style="fill:#3e3e3f;fill-opacity:1;fill-rule:nonzero;stroke:none"
             id="path970" />
        </g>
        <g
           id="g972"
           transform="translate(656.66998,469.63)">
          <path
             d="M 0,0 -4.17,15.23 H -7.05 L -2.88,0 h -4.65 l 0.64,-2.41 H 5.45 L 4.65,0 Z"
             style="fill:#3e3e3f;fill-opacity:1;fill-rule:nonzero;stroke:none"
             id="path974" />
        </g>
        <g
           id="g976">
          <path
             d="M 659.86999,484.85999 664.84003,467.22 h 2.87994 l -4.95996,17.63999 z"
             style="fill:#3e3e3f;fill-opacity:1;fill-rule:nonzero;stroke:none"
             id="path978" />
        </g>
        <g
           id="g980"
           transform="translate(683.58002,476.04001)">
          <path
             d="M 0,0 C 0.16,-0.8 0.32,-1.76 0.16,-2.56 0,-3.37 -0.16,-4.01 -0.64,-4.65 c -0.48,-0.64 -0.96,-1.12 -1.6,-1.44 -0.8,-0.32 -1.6,-0.48 -2.4,-0.48 -0.96,0 -1.76,0.16 -2.57,0.48 -0.96,0.32 -1.76,0.8 -2.56,1.44 -0.8,0.64 -1.44,1.28 -2.08,2.09 -0.48,0.8 -0.8,1.76 -1.12,2.56 -0.32,0.96 -0.32,1.76 -0.16,2.57 0,0.8 0.32,1.44 0.8,2.08 0.32,0.64 0.96,1.12 1.6,1.44 0.8,0.32 1.44,0.48 2.4,0.48 0.8,0 1.76,-0.16 2.57,-0.48 C -4.8,5.77 -4,5.29 -3.2,4.65 -2.4,4.01 -1.76,3.37 -1.28,2.57 -0.64,1.76 -0.32,0.96 0,0 Z M 2.89,0 C 2.57,1.28 2.09,2.41 1.29,3.53 0.48,4.65 -0.48,5.77 -1.6,6.57 -2.88,7.54 -4,8.18 -5.28,8.66 -6.57,9.14 -7.85,9.3 -9.13,9.3 c -1.28,0 -2.4,-0.16 -3.36,-0.64 -1.12,-0.48 -1.93,-1.12 -2.57,-2.09 -0.64,-0.8 -1.12,-1.92 -1.28,-2.88 -0.16,-1.12 0,-2.41 0.32,-3.69 0.32,-1.28 0.96,-2.4 1.76,-3.53 0.81,-1.12 1.77,-2.08 2.89,-3.04 1.12,-0.81 2.4,-1.61 3.68,-1.93 1.29,-0.48 2.41,-0.8 3.69,-0.8 1.28,0 2.56,0.32 3.52,0.8 0.96,0.32 1.77,1.12 2.57,1.93 0.64,0.96 0.96,1.92 1.12,3.04 C 3.37,-2.4 3.37,-1.28 2.89,0 Z"
             style="fill:#3e3e3f;fill-opacity:1;fill-rule:nonzero;stroke:none"
             id="path982" />
        </g>
        <g
           id="g984"
           transform="translate(686.46997,484.85999)">
          <path
             d="M 0,0 4.96,-18.440001 13.3,-7.54 c 0.16,0.32 0.48,0.64 0.64,0.97 0.16,0.32 0.48,0.8 0.64,1.12 l 3.360001,-12.189999 H 20.67 L 15.54,0.64 7.21,-10.26 C 6.89,-10.58 6.73,-10.9 6.57,-11.22 6.25,-11.55 6.09,-11.87 5.93,-12.35 L 2.56,0 Z"
             style="fill:#3e3e3f;fill-opacity:1;fill-rule:nonzero;stroke:none"
             id="path986" />
        </g>
        <g
           id="g988"
           transform="translate(729.40997,476.04001)">
          <path
             d="M 0,0 C 0.16,-0.8 0.32,-1.76 0.16,-2.56 0,-3.37 -0.16,-4.01 -0.64,-4.65 -1.12,-5.29 -1.6,-5.77 -2.25,-6.09 c -0.8,-0.32 -1.6,-0.48 -2.4,-0.48 -0.8,0 -1.76,0.16 -2.56,0.48 -0.96,0.32 -1.77,0.8 -2.57,1.44 -0.8,0.64 -1.44,1.28 -1.92,2.09 -0.64,0.8 -0.96,1.76 -1.28,2.56 -0.16,0.96 -0.32,1.76 -0.16,2.57 0,0.8 0.32,1.44 0.8,2.08 0.32,0.64 0.96,1.12 1.6,1.44 0.8,0.32 1.44,0.48 2.41,0.48 0.8,0 1.76,-0.16 2.56,-0.48 0.96,-0.32 1.76,-0.8 2.56,-1.44 0.8,-0.64 1.44,-1.28 1.93,-2.08 C -0.64,1.76 -0.32,0.96 0,0 Z M 2.88,0 C 2.56,1.28 2.08,2.41 1.28,3.53 0.48,4.65 -0.48,5.77 -1.6,6.57 -2.73,7.54 -4.01,8.18 -5.29,8.66 -6.57,9.14 -7.85,9.3 -9.14,9.3 -10.42,9.3 -11.54,9.14 -12.5,8.66 -13.62,8.18 -14.42,7.54 -15.06,6.57 -15.7,5.77 -16.02,4.65 -16.190001,3.69 -16.35,2.57 -16.35,1.28 -16.02,0 c 0.48,-1.28 0.96,-2.4 1.76,-3.53 0.8,-1.12 1.76,-2.08 2.88,-3.04 1.12,-0.81 2.4,-1.61 3.69,-1.93 1.28,-0.48 2.56,-0.8 3.84,-0.8 1.12,0 2.41,0.32 3.37,0.8 0.96,0.32 1.76,1.12 2.56,1.93 0.64,0.96 0.96,1.92 1.12,3.04 C 3.36,-2.4 3.36,-1.28 2.88,0 Z"
             style="fill:#3e3e3f;fill-opacity:1;fill-rule:nonzero;stroke:none"
             id="path990" />
        </g>
        <g
           id="g992"
           transform="translate(732.28998,484.85999)">
          <path
             d="m 0,0 4.81,-17.639999 h 9.93 L 14.1,-15.23 H 7.05 l -1.28,4.49 h 7.05 l -0.64,2.4 H 5.13 L 2.89,0 Z"
             style="fill:#3e3e3f;fill-opacity:1;fill-rule:nonzero;stroke:none"
             id="path994" />
        </g>
        <g
           id="g996">
          <path
             d="m 752.79999,484.85999 4.81,-17.63999 h 2.88 l -4.81,17.63999 z"
             style="fill:#3e3e3f;fill-opacity:1;fill-rule:nonzero;stroke:none"
             id="path998" />
        </g>
        <g
           id="g1000"
           transform="translate(758.25,484.85999)">
          <path
             d="M 0,0 5.12,-18.440001 13.3,-7.54 c 0.32,0.32 0.48,0.64 0.8,0.97 0.16,0.32 0.32,0.8 0.64,1.12 l 3.36,-12.189999 h 2.73 L 15.7,0.64 7.21,-10.26 C 7.05,-10.58 6.73,-10.9 6.57,-11.22 6.41,-11.55 6.25,-11.87 6.09,-12.35 L 2.72,0 Z"
             style="fill:#3e3e3f;fill-opacity:1;fill-rule:nonzero;stroke:none"
             id="path1002" />
        </g>
        <g
           id="g1004"
           transform="translate(780.84003,482.29001)">
          <path
             d="m 0,0 h 2.4 c 1.28,0 2.24,-0.16 3.05,-0.32 0.64,-0.16 1.28,-0.48 1.92,-0.8 0.8,-0.64 1.6,-1.28 2.08,-2.24 0.64,-0.8 1.12,-1.77 1.28,-2.89 0.32,-1.12 0.48,-2.08 0.32,-3.05 0,-0.8 -0.32,-1.44 -0.8,-2.08 -0.48,-0.48 -0.96,-0.64 -1.6,-0.96 C 8.01,-12.5 6.89,-12.5 5.45,-12.5 H 4.48 3.36 Z m -3.69,2.57 4.97,-17.64 h 3.85 c 2.56,0 4.32,0.16 5.28,0.32 0.8,0.32 1.6,0.64 2.25,1.29 0.8,0.8 1.28,1.76 1.44,3.04 0.32,1.28 0.16,2.57 -0.32,4.17 -0.48,1.6 -1.12,3.05 -1.93,4.17 C 11.05,-0.8 9.93,0.16 8.65,0.97 7.69,1.61 6.73,1.93 5.77,2.25 4.64,2.41 3.04,2.57 0.96,2.57 h -0.8 z"
             style="fill:#3e3e3f;fill-opacity:1;fill-rule:nonzero;stroke:none"
             id="path1006" />
        </g>
        <g
           id="g1008">
          <path
             d="M 793.97998,484.85999 798.94,467.22 h 2.89002 l -4.97004,17.63999 z"
             style="fill:#3e3e3f;fill-opacity:1;fill-rule:nonzero;stroke:none"
             id="path1010" />
        </g>
        <g
           id="g1012"
           transform="translate(806.78998,477.95999)">
          <path
             d="m 0,0 h 4.96 l -0.8,-4 c 0,-0.32 0,-0.65 0,-0.97 0,-0.32 0,-0.64 0,-1.12 -0.32,0.48 -0.48,0.8 -0.64,1.12 C 3.2,-4.65 3.04,-4.32 2.88,-4 Z M 5.92,6.9 5.28,2.41 H -1.77 L -5.13,6.9 H -8.18 L 5.6,-11.54 8.97,6.9 Z"
             style="fill:#3e3e3f;fill-opacity:1;fill-rule:nonzero;stroke:none"
             id="path1014" />
        </g>
      </g>
    </g>
  </g>
  <metadata
     id="metadata2290">
    <rdf:RDF>
      <cc:Work
         rdf:about="">
        <dc:title>National Payments Corporation of India</dc:title>
      </cc:Work>
    </rdf:RDF>
  </metadata>
</svg>
